<?xml version="1.0" standalone="no"?>
<!DOCTYPE svg PUBLIC "-//W3C//DTD SVG 20010904//EN"
 "http://www.w3.org/TR/2001/REC-SVG-20010904/DTD/svg10.dtd">
<svg version="1.0" xmlns="http://www.w3.org/2000/svg"
 width="1561.000000pt" height="1561.000000pt" viewBox="0 0 1561.000000 1561.000000"
 preserveAspectRatio="xMidYMid meet">
<metadata>
Created by potrace 1.11, written by Peter Selinger 2001-2013
</metadata>
<g transform="translate(0.000000,1561.000000) scale(0.100000,-0.100000)"
fill="#000000" stroke="none">
<path d="M7460 15599 c-665 -23 -1342 -129 -1920 -300 -834 -248 -1591 -625
-2304 -1149 -670 -491 -1348 -1178 -1837 -1860 -532 -740 -897 -1510 -1139
-2400 -36 -131 -131 -586 -160 -761 -22 -139 -64 -525 -81 -759 -19 -257 -17
-960 5 -1214 59 -708 170 -1272 370 -1871 380 -1139 1026 -2147 1967 -3070
692 -679 1446 -1196 2301 -1579 708 -317 1546 -528 2378 -601 1456 -126 2862
107 4055 671 1035 490 1972 1222 2737 2140 1060 1273 1624 2668 1754 4344 24
308 25 930 1 1230 -24 291 -52 526 -92 766 -265 1581 -986 2955 -2175 4144
-1223 1223 -2671 1961 -4305 2195 -516 74 -962 95 -1555 74z m875 -289 c188
-13 398 -34 585 -61 1423 -203 2659 -775 3771 -1746 183 -159 648 -626 800
-803 665 -773 1108 -1533 1414 -2430 412 -1209 504 -2597 260 -3935 -40 -220
-160 -691 -235 -915 -121 -367 -226 -622 -400 -970 -705 -1409 -1983 -2691
-3381 -3390 -527 -264 -966 -424 -1559 -568 -898 -219 -1937 -267 -2900 -137
-1500 204 -2815 824 -3952 1862 -311 284 -706 709 -939 1008 -324 417 -565
797 -782 1231 -409 819 -641 1648 -733 2624 -22 235 -31 958 -15 1226 23 375
78 783 162 1194 150 731 487 1558 907 2230 307 492 646 913 1102 1371 429 432
751 700 1210 1011 407 276 905 537 1385 725 145 57 518 180 674 223 413 114
1041 219 1481 249 179 12 968 12 1145 1z"/>
<path d="M7665 15133 c-71 -4 -378 -39 -485 -56 l-75 -12 -6 -185 c-4 -102 -7
-485 -8 -851 l-1 -665 153 24 c83 14 158 26 165 28 9 3 12 54 12 216 0 117 3
270 7 340 l6 126 51 6 c132 16 343 25 377 16 53 -15 140 -80 175 -131 24 -37
133 -323 191 -504 9 -29 12 -30 94 -37 46 -4 125 -12 174 -17 50 -5 91 -8 93
-6 1 1 -20 60 -47 131 -27 71 -73 199 -101 284 -58 171 -98 252 -159 322 l-41
46 57 32 c86 49 165 133 193 205 48 125 36 297 -28 419 -75 144 -186 230 -334
260 -73 15 -276 19 -463 9z m400 -296 c84 -38 119 -92 118 -187 -1 -101 -36
-164 -109 -195 -40 -16 -209 -35 -320 -35 -80 0 -252 -14 -301 -25 l-23 -5 0
220 c0 121 3 220 8 221 4 0 63 7 132 14 177 19 443 14 495 -8z"/>
<path d="M6555 14955 c-305 -66 -771 -179 -952 -231 l-53 -15 0 -870 c0 -621
3 -869 11 -869 6 0 63 14 127 31 65 16 133 34 152 39 l35 9 -4 370 -3 370 43
11 c24 6 68 18 98 26 30 9 184 49 344 89 159 41 291 75 292 77 2 2 5 68 7 148
l3 145 -25 -3 c-14 -2 -188 -44 -388 -93 -200 -50 -366 -88 -369 -85 -3 3 -1
92 3 198 l9 193 226 56 c124 32 313 75 420 98 107 23 204 44 217 46 22 5 22 8
22 155 0 83 -3 150 -7 149 -5 0 -98 -20 -208 -44z"/>
<path d="M9283 14940 c-147 -39 -253 -112 -329 -227 -53 -80 -110 -240 -125
-349 -31 -238 29 -522 152 -710 169 -259 457 -436 788 -486 113 -17 148 -18
206 -9 127 19 167 36 238 101 71 66 104 122 131 226 29 112 33 106 -106 157
-217 79 -218 79 -218 27 0 -15 -15 -57 -32 -91 -27 -51 -41 -67 -80 -87 -122
-63 -329 -25 -492 92 -107 76 -183 191 -227 341 -20 69 -23 102 -24 240 0 173
8 220 56 315 76 152 235 212 424 161 44 -12 107 -37 140 -56 114 -63 213 -197
235 -317 6 -28 11 -52 13 -53 11 -8 320 -106 326 -103 12 5 -23 164 -52 237
-86 214 -276 418 -481 516 -171 82 -400 114 -543 75z"/>
<path d="M7420 13234 c-1234 -105 -2229 -520 -3135 -1308 -240 -209 -581 -568
-781 -822 -486 -617 -828 -1339 -993 -2094 -132 -610 -164 -1269 -91 -1912 86
-751 323 -1458 701 -2088 536 -895 1390 -1696 2284 -2143 751 -375 1548 -557
2440 -557 1219 0 2292 346 3220 1040 905 675 1581 1566 1940 2555 370 1021
415 2292 120 3365 -210 764 -579 1442 -1126 2070 -424 486 -972 937 -1502
1234 -613 344 -1226 540 -1992 637 -147 19 -230 22 -605 24 -239 1 -455 1
-480 -1z m670 -174 c162 -10 486 -49 605 -73 l59 -12 99 -120 c440 -537 909
-1209 1245 -1786 775 -1326 1281 -2622 1626 -4159 75 -333 194 -994 221 -1225
l7 -60 -63 90 c-87 122 -253 286 -368 363 -162 108 -302 167 -501 209 -118 25
-437 25 -565 0 -278 -54 -524 -191 -730 -408 -208 -218 -326 -454 -372 -743
-19 -126 -13 -413 12 -526 60 -271 180 -486 384 -690 262 -261 544 -390 889
-409 l123 -6 -83 -61 c-125 -93 -349 -243 -478 -321 -129 -79 -375 -213 -389
-213 -12 0 -115 113 -206 225 -337 420 -569 942 -654 1475 -37 232 -46 343
-46 610 0 244 3 283 32 490 138 978 214 1983 200 2645 -8 366 -39 630 -102
865 -8 30 -13 56 -11 58 2 2 42 -9 88 -23 109 -36 288 -45 392 -21 332 78 563
313 630 638 18 86 20 128 7 128 -4 0 -191 -88 -415 -196 l-408 -196 -51 21
c-103 42 -186 126 -244 248 -45 93 -55 208 -29 306 l17 62 417 199 c229 110
419 201 422 204 7 5 -35 38 -88 69 -207 122 -479 147 -702 66 -138 -50 -296
-174 -378 -297 -49 -73 -107 -199 -118 -256 -4 -16 -10 -30 -14 -30 -4 0 -44
42 -88 94 -248 285 -512 475 -731 526 -32 8 -85 11 -132 7 -149 -10 -262 -87
-370 -250 -44 -67 -58 -83 -54 -61 83 485 199 873 366 1224 34 72 60 132 57
135 -3 3 -41 -10 -84 -28 -381 -164 -698 -415 -898 -712 -105 -156 -217 -427
-263 -635 -14 -67 -18 -126 -17 -275 0 -177 2 -196 27 -278 48 -157 114 -278
222 -407 48 -57 130 -212 141 -266 l6 -31 -179 -73 c-98 -40 -272 -110 -388
-155 l-210 -82 -56 22 c-103 41 -159 50 -299 50 -111 0 -149 -4 -215 -23 -155
-45 -316 -151 -411 -270 -94 -118 -179 -340 -172 -445 l3 -44 415 199 414 199
72 -35 c98 -49 179 -136 225 -242 31 -73 33 -87 34 -184 0 -169 9 -159 -285
-300 -629 -301 -585 -277 -564 -301 25 -28 185 -105 269 -130 102 -30 279 -37
379 -14 256 56 454 208 561 430 24 50 49 115 56 146 10 42 19 60 38 71 43 25
275 159 291 168 11 6 33 -5 74 -35 135 -102 312 -169 481 -183 l90 -7 7 -40
c12 -71 8 -290 -7 -412 -49 -376 -213 -930 -366 -1235 -222 -444 -376 -837
-458 -1170 -140 -567 -181 -770 -216 -1073 -23 -188 -32 -743 -16 -942 11
-138 34 -332 47 -396 l6 -27 -66 24 c-411 155 -877 409 -1256 685 l-105 76 95
7 c287 21 542 111 745 260 181 134 374 364 459 550 92 199 121 340 121 598 0
167 -4 210 -23 299 -63 281 -183 493 -396 698 -128 124 -221 191 -362 261
-194 97 -356 132 -613 132 -257 0 -414 -33 -606 -125 -226 -108 -424 -281
-566 -493 -36 -55 -47 -66 -44 -45 3 15 26 152 51 303 148 897 349 1701 642
2570 145 429 283 779 507 1285 438 993 1050 2002 1726 2852 112 139 258 314
273 324 5 4 70 16 145 28 406 62 700 80 1011 61z m-1708 -412 c-764 -979
-1417 -2019 -1880 -2993 -460 -969 -760 -1842 -966 -2808 -96 -448 -176 -1068
-204 -1582 l-7 -130 -111 220 c-239 471 -391 932 -478 1445 -19 109 -21 149
-15 210 55 488 172 975 345 1439 218 583 456 1038 848 1625 509 762 1199 1533
2040 2281 140 125 575 494 583 495 2 0 -69 -91 -155 -202z m2951 30 c726 -683
1410 -1421 1898 -2050 625 -803 1080 -1577 1384 -2352 153 -389 268 -800 334
-1192 26 -152 26 -154 -4 -321 -93 -511 -284 -1061 -524 -1507 l-59 -109 -6
84 c-3 46 -8 134 -11 194 -43 838 -230 1790 -525 2675 -489 1465 -1365 3051
-2494 4519 -85 111 -153 201 -150 201 3 0 73 -64 157 -142z m-2062 -1160 c-5
-13 -29 -72 -54 -133 -171 -417 -254 -766 -227 -954 18 -129 61 -183 176 -221
382 -127 684 -365 829 -651 68 -135 128 -340 154 -532 10 -68 8 -90 -10 -175
-43 -196 -110 -339 -210 -447 -75 -80 -138 -121 -234 -151 -129 -41 -340 -30
-516 27 -108 34 -229 81 -229 88 0 4 15 38 34 77 48 98 84 219 97 329 21 167
-17 368 -100 533 -37 74 -137 223 -188 282 -156 178 -246 488 -214 735 39 301
185 604 450 935 75 94 239 280 247 280 2 0 0 -10 -5 -22z m479 -953 c343 -89
674 -402 885 -840 70 -145 92 -206 134 -380 116 -475 181 -1023 181 -1523 1
-471 -40 -888 -160 -1632 -82 -510 -101 -770 -82 -1113 23 -408 83 -707 210
-1042 189 -499 417 -905 650 -1158 24 -27 40 -52 36 -57 -13 -12 -294 -93
-464 -134 -475 -114 -831 -156 -1335 -156 -428 0 -677 19 -1067 82 l-196 31
-26 133 c-55 285 -61 354 -61 734 1 453 22 622 134 1077 173 697 361 1235 594
1699 172 344 317 781 376 1134 49 294 66 549 42 613 -9 24 -8 26 42 37 238 57
413 204 539 455 167 331 159 684 -23 1042 -80 159 -159 272 -271 389 -159 164
-337 277 -530 336 -43 13 -78 28 -78 34 0 23 82 135 124 169 70 57 141 85 220
85 37 0 94 -7 126 -15z m-3469 -5231 c134 -39 264 -147 322 -268 114 -234 37
-508 -184 -655 -253 -169 -595 -70 -734 214 -135 274 15 610 314 706 72 23
209 24 282 3z m7422 -5 c205 -68 347 -267 347 -484 0 -168 -85 -329 -226 -426
-315 -216 -759 0 -790 384 -20 238 139 469 366 533 75 21 231 17 303 -7z"/>
<path d="M2237 11569 c-153 -36 -274 -183 -285 -344 -10 -161 75 -303 223
-372 53 -25 71 -28 160 -28 88 0 106 3 155 27 72 36 152 115 187 186 25 51 28
67 28 162 0 119 -14 161 -80 240 -94 113 -243 163 -388 129z"/>
<path d="M13317 11569 c-153 -36 -274 -183 -285 -344 -10 -161 75 -303 223
-372 53 -25 71 -28 160 -28 88 0 106 3 155 27 72 36 152 115 187 186 25 51 28
67 28 162 0 119 -14 161 -80 240 -94 113 -243 163 -388 129z"/>
<path d="M1275 8227 c-22 -8 -54 -21 -71 -30 -49 -25 -132 -116 -162 -177 -24
-49 -27 -66 -27 -160 0 -91 3 -112 25 -155 33 -69 126 -160 197 -193 51 -24
70 -27 153 -27 84 1 102 4 155 30 82 39 167 127 194 200 58 154 30 294 -81
412 -73 77 -140 106 -253 110 -56 2 -105 -2 -130 -10z"/>
<path d="M14043 8222 c-102 -36 -179 -107 -225 -208 -19 -41 -23 -66 -23 -154
0 -94 3 -111 28 -161 34 -70 119 -152 194 -186 190 -87 428 13 502 211 71 190
-7 390 -187 478 -57 28 -79 33 -152 36 -62 2 -99 -3 -137 -16z"/>
<path d="M2237 5119 c-103 -24 -206 -111 -255 -217 -23 -49 -27 -70 -27 -152
0 -88 3 -101 33 -162 38 -78 110 -149 192 -187 48 -23 68 -26 155 -26 85 0
107 4 149 24 71 36 160 123 193 189 25 51 28 67 28 162 0 119 -14 161 -80 240
-94 113 -243 163 -388 129z"/>
<path d="M13295 5070 c-107 -33 -219 -149 -251 -257 -34 -116 -4 -257 73 -351
176 -215 512 -175 635 76 31 62 33 74 33 167 0 87 -3 107 -27 157 -35 76 -95
138 -170 179 -58 31 -71 34 -163 36 -55 1 -113 -2 -130 -7z"/>
<path d="M10545 2715 c-224 -65 -499 -156 -727 -240 l-127 -47 -5 -41 c-3 -23
-10 -177 -16 -342 -6 -165 -15 -387 -21 -494 -6 -106 -8 -196 -5 -199 3 -3 65
12 136 33 l131 39 50 62 c106 133 235 199 375 192 70 -3 75 -5 113 -42 64 -62
75 -95 76 -217 0 -104 -1 -107 -40 -183 -48 -95 -108 -153 -199 -195 -137 -63
-256 -40 -310 59 -14 26 -26 54 -26 61 -1 42 -13 42 -166 -1 -82 -23 -163 -46
-180 -51 l-31 -10 9 -52 c14 -75 39 -125 93 -185 163 -181 429 -187 765 -17
91 46 249 181 307 262 76 106 127 246 140 387 7 81 -20 224 -57 302 -37 76
-128 165 -207 202 -53 25 -68 27 -178 27 -106 0 -129 -4 -200 -29 -97 -34
-126 -48 -189 -93 l-49 -35 8 164 c4 89 10 166 13 170 10 10 464 160 622 206
120 35 135 41 134 60 0 12 -1 87 -2 167 -1 80 -5 145 -9 144 -5 0 -107 -29
-228 -64z"/>
<path d="M5326 2699 c-42 -10 -126 -66 -164 -108 -55 -62 -119 -243 -110 -316
3 -27 9 -30 163 -82 88 -29 165 -53 172 -53 9 0 13 15 13 44 0 55 30 127 69
165 40 39 108 49 176 25 118 -39 178 -89 236 -196 33 -61 34 -67 33 -169 0
-96 -3 -110 -27 -151 -28 -48 -75 -94 -135 -132 -51 -31 -239 -127 -345 -175
-202 -92 -353 -220 -397 -337 -19 -53 -40 -139 -40 -169 0 -6 42 -24 93 -39
388 -116 908 -273 1037 -315 85 -27 155 -49 156 -48 1 1 4 68 6 148 l4 146
-375 118 c-207 65 -387 122 -401 127 -24 9 -23 11 35 44 33 19 105 52 160 73
247 97 427 198 500 283 152 177 135 453 -45 718 -65 95 -245 252 -353 306
-161 82 -347 120 -461 93z"/>
<path d="M6875 2266 c-165 -40 -271 -161 -324 -368 -58 -226 -55 -679 5 -888
58 -200 209 -384 394 -479 142 -73 193 -84 356 -79 l143 5 76 44 c102 58 143
95 199 176 88 130 123 286 92 418 -42 176 -204 361 -400 454 -133 64 -365 91
-480 57 l-47 -14 7 46 c9 66 50 185 78 230 47 74 94 102 171 102 135 0 245
-100 285 -261 l12 -46 101 -11 c133 -16 267 -26 267 -21 0 3 -9 37 -20 77 -57
203 -186 366 -371 464 -84 45 -140 64 -267 88 -115 22 -203 24 -277 6z m386
-953 c93 -42 156 -118 186 -223 14 -53 15 -71 5 -132 -26 -152 -105 -228 -236
-228 -52 0 -78 6 -117 26 -136 69 -211 209 -225 425 l-7 96 64 26 c35 14 71
28 79 31 8 3 58 4 110 3 70 -2 107 -9 141 -24z"/>
<path d="M8760 2273 c-14 -3 -70 -15 -125 -29 -333 -80 -513 -299 -571 -694
-24 -167 -16 -560 15 -679 69 -269 226 -404 486 -418 84 -5 112 -2 172 16 399
119 618 469 617 986 -1 386 -116 685 -300 778 -81 40 -199 57 -294 40z m60
-323 c92 -47 140 -174 161 -423 8 -104 8 -176 -1 -295 -17 -238 -51 -344 -136
-422 -65 -59 -115 -80 -200 -80 -87 0 -123 21 -166 97 -45 79 -57 174 -58 433
0 253 11 370 46 481 30 94 56 133 118 176 82 56 167 68 236 33z"/>
</g>
</svg>
